<svg width="32" height="24" viewBox="0 0 32 24" fill="none" xmlns="http://www.w3.org/2000/svg">
<path d="M21.3954 4.812C21.0558 4.80771 20.714 4.93811 20.4498 5.19963L18.6952 6.93003L16.3473 4.61161C16.3131 4.57587 16.2769 4.52301 16.2258 4.48934L16.209 4.4725L18.6313 2.08202L21.3954 4.812Z" fill="url(#paint0_linear_1633_5)"/>
<path d="M9.81094 19.206C10.1504 19.21 10.4921 19.0797 10.7566 18.8184L12.5111 17.0872L14.859 19.4061C14.8933 19.4415 14.9293 19.4945 14.9806 19.5282L14.9977 19.5452L12.5751 21.9355L9.81094 19.206Z" fill="url(#paint1_linear_1633_5)"/>
<path d="M15.2145 14.4199L17.2819 16.462C19.1046 18.2612 21.8386 18.6249 24.0286 17.5171C24.5546 17.2581 25.0621 16.8947 25.5003 16.462C26.0085 15.9603 26.3942 15.4061 26.6744 14.7991C27.6565 12.6889 27.2706 10.0931 25.501 8.3453L22.3124 5.19623C21.8034 4.67717 20.98 4.67717 20.4547 5.19623L18.7017 6.92693L16.3535 4.60821C16.3191 4.57366 16.2833 4.52094 16.2313 4.48623L16.2141 4.46925L20.1385 0.592914C20.9271 -0.18575 22.2241 -0.203619 23.0125 0.575784L28.4796 5.97578C32.0017 9.45297 32.16 15.0077 28.9531 18.6767C28.8129 18.8666 28.6372 19.0403 28.4796 19.2129L28.287 19.4037C27.394 20.2691 26.3765 20.9439 25.2906 21.376C21.8908 22.8298 17.8262 22.1894 15.022 19.5416L12.5344 17.067L15.2145 14.4199Z" fill="#04AF93"/>
<path d="M18.4567 11.287L20.9444 8.82995C21.1901 8.58792 21.5936 8.58792 21.821 8.82995L23.3284 10.3183C24.1691 11.1317 24.3435 12.3606 23.889 13.3645C23.7482 13.6403 23.5562 13.9175 23.3284 14.1413C23.1176 14.3504 22.8716 14.5058 22.6265 14.6451C21.6117 15.1646 20.314 14.9919 19.4557 14.1424L17.9481 12.6543C17.7033 12.4123 17.7033 12.0317 17.9487 11.7898L18.1067 11.6345L18.4567 11.287Z" fill="#04AF93"/>
<path d="M2.77302 4.79797L2.96681 4.60806C5.48959 2.099 9.09977 1.31989 12.3062 2.23663C13.3912 2.5488 14.4267 3.05059 15.3544 3.74272C15.6531 3.96703 15.9325 4.19222 16.2141 4.46896L16.2313 4.48594C16.2835 4.52064 16.3191 4.57336 16.3535 4.60791L18.7017 6.92663L16.0197 9.57347L13.9707 7.53193C13.8298 7.39356 13.6726 7.25564 13.5146 7.13381C13.4969 7.11653 13.4969 7.11653 13.4803 7.09999C13.1816 6.87495 12.8842 6.66673 12.5498 6.51138C11.6227 6.02673 10.5882 5.81851 9.57184 5.87064C8.16862 5.92277 6.80323 6.49366 5.73452 7.53267C3.47418 9.78154 3.47418 13.4158 5.73452 15.6659L8.92272 18.8154C9.43218 19.3175 10.2729 19.3175 10.7813 18.8154L11.6919 17.8972L12.5341 17.0668L15.0217 19.5415L11.0965 23.4014C10.3083 24.1968 9.01109 24.1968 8.22215 23.4177L2.77347 18.0364C-0.924189 14.3671 -0.924639 8.4494 2.77302 4.79797Z" fill="#1F204E"/>
<path d="M9.47898 15.122L7.97109 13.6338C7.14163 12.8136 6.95591 11.592 7.4241 10.5884C7.55643 10.3043 7.7438 10.0404 7.97527 9.81018C8.18776 9.60034 8.42731 9.43525 8.67285 9.3087C9.70119 8.78668 10.9911 8.95517 11.8492 9.80369L13.3573 11.2926C13.5961 11.5286 13.6021 11.914 13.3573 12.1555L10.3526 15.1226C10.1088 15.3636 9.71853 15.3581 9.47898 15.122Z" fill="#1F204E"/>
<defs>
<linearGradient id="paint0_linear_1633_5" x1="23.1028" y1="6.6148" x2="8.15223" y2="24.1915" gradientUnits="userSpaceOnUse">
<stop stop-color="white"/>
<stop offset="1"/>
</linearGradient>
<linearGradient id="paint1_linear_1633_5" x1="8.14174" y1="17.3861" x2="23.0926" y2="-0.191012" gradientUnits="userSpaceOnUse">
<stop stop-color="white"/>
<stop offset="1"/>
</linearGradient>
</defs>
</svg>
